PathFileType	4	(X/Y/Z)	C:\Users\WrightLab\Desktop\Jo\P5V127.trc
DataRate	CameraRate	NumFrames	NumMarkers	Units	OrigDataRate	OrigDataStartFrame	OrigNumFrames
100.00	100.00	       7	19	mm	100.00	239	       636
Frame#	Time	Headset_Front			Headset_Back			Headset_Left			Headset_Right			Left_Shoulder			Right_Shoulder			Sternum			C7			Left Elbow			Right Elbow			Left Wrist			Right Wrist			Left ASIS			Right ASIS			S2			Left Knee			Right Knee			Left Ankle			Right Ankle			
		X1	Y1	Z1	X2	Y2	Z2	X3	Y3	Z3	X4	Y4	Z4	X5	Y5	Z5	X6	Y6	Z6	X7	Y7	Z7	X8	Y8	Z8	X9	Y9	Z9	X10	Y10	Z10	X11	Y11	Z11	X12	Y12	Z12	X13	Y13	Z13	X14	Y14	Z14	X15	Y15	Z15	X16	Y16	Z16	X17	Y17	Z17	X18	Y18	Z18	X19	Y19	Z19	

239	2.380	92.22170	1534.08777	201.27747							75.25372	1597.07642	64.89755	451.21658	1503.35876	148.71303	119.58666	1436.49878	-85.51235	231.60512	1314.15710	103.59391	344.56787	1517.22693	-74.50494	575.87512	1235.87671	179.82584	100.29842	1157.48047	-161.65736	476.40796	1071.95361	313.03345	70.09131	979.50647	7.05646	368.59344	933.64008	201.86913	162.51735	930.90540	13.39124	473.43185	973.91040	-67.71035	443.13840	518.92419	237.07404	241.18648	487.92188	-19.38391	476.66095	107.09003	201.27768	390.49121	233.66353	-263.98431	
240	2.390	87.57013	1535.27539	207.52913							71.50067	1598.89478	71.20224	445.52319	1504.62244	159.62964	117.92412	1438.42334	-79.57792	227.15781	1315.59741	109.79836	342.57581	1518.88770	-65.32114	570.15894	1237.06006	192.24022	98.48525	1159.17395	-156.58353	468.28452	1071.88489	323.81735	67.32281	980.24164	12.17291	360.44922	935.14160	210.04497	157.53670	932.63727	18.37841	471.47360	975.85901	-59.11334	438.84314	517.57111	246.63324	225.33905	489.42734	0.59676	475.86551	107.36219	201.47342	384.57178	241.43959	-247.89238	
241	2.400	83.83301	1536.31165	213.12564							67.87962	1600.17932	76.94427	439.40350	1504.91650	170.27493	116.33739	1440.11182	-74.05083	223.05635	1316.82117	116.05444	340.11728	1520.90833	-56.95893	563.61993	1238.26294	205.53281	96.94743	1160.76038	-151.23335	459.47055	1071.89844	333.85330	64.37302	981.16742	16.12144	353.15225	935.99030	217.53387	151.96873	934.65741	23.68546	467.65076	977.24652	-48.79478	435.58084	517.33459	256.12836	209.49168	489.30988	20.98732	474.96854	107.27003	201.86160	378.89813	249.61180	-230.34308	
242	2.410	78.82575	1538.26465	218.99049							64.33848	1601.11121	82.37620	433.22693	1506.29211	180.64098	113.81634	1442.15540	-68.09277	218.38972	1318.27625	122.85030	337.80640	1522.93420	-48.77139	556.82440	1239.05249	218.31749	95.36487	1162.80530	-145.95769	450.99857	1072.25330	344.02209	61.06675	982.48029	20.76616	345.93600	936.45880	224.77284	147.15152	935.77728	27.58203	464.55496	979.29767	-39.15490	432.24139	517.62390	264.97086	193.37761	489.07031	43.24612	473.69498	107.65477	200.50769	374.21170	257.11322	-213.06917	
243	2.420	73.17958	1539.90112	224.98477							60.78703	1602.36890	87.77473	426.55392	1507.44421	190.92436	111.44978	1444.15808	-62.28837	213.68199	1319.55017	129.07430	335.35049	1524.60962	-40.10028	549.14081	1240.76709	230.81012	93.94869	1165.05127	-140.04619	442.18344	1072.66309	353.17172	57.91448	983.25812	25.06464	338.49469	937.40338	231.97028	141.57953	937.69696	31.96442	461.80383	980.75714	-30.17180	428.53168	518.21338	273.34241	178.20995	488.72736	64.62485	473.22452	108.17828	200.56380	369.27539	263.85818	-194.80350	
244	2.430	68.15512	1541.87292	230.47540							56.69318	1604.29590	93.40064	420.91846	1508.51843	201.21967	108.85676	1446.24866	-56.46246	208.80515	1320.85535	135.28757	332.82877	1526.09937	-30.75821	542.83221	1242.12256	243.04233	92.83558	1167.10583	-134.37352	433.82840	1072.66345	362.64999	54.69976	984.75031	29.12414	330.86005	938.24615	238.93336	136.36162	939.33582	36.05762	458.75217	982.03668	-20.68110	425.74295	520.02808	282.10614	163.35094	489.29681	86.05243	472.55408	108.87048	200.66988	363.40796	268.68475	-176.50963	
245	2.440	63.70099	1543.24561	235.66223							52.44555	1606.66968	98.98267	414.61072	1509.69678	210.79762	106.29469	1448.63013	-50.98748	202.51123	1322.47290	141.65195	330.23087	1527.56641	-22.13469	535.77869	1242.99158	254.75722	90.78152	1169.00085	-128.44318	424.54037	1073.02502	371.76233	51.48813	986.09131	33.18649	326.06143	937.90759	244.79935	131.27025	940.66229	40.55471	455.36133	983.72302	-11.83006	422.27634	520.71173	290.96820	148.47061	491.32025	106.27318	471.69098	108.97086	200.45464	356.94733	271.97424	-156.63727	
